<?xml version="1.0" encoding="utf-8"?>
<svg version="1.1" xmlns="http://www.w3.org/2000/svg" width="594" height="319">
  <path d="M0 0 C20.79 0 41.58 0 63 0 C66.17625 6.5175 69.3525 13.035 72.625 19.75 C80.55767058 36.00314731 88.57578529 52.21050364 96.6875 68.375 C102.48979296 79.93770651 108.27893343 91.49714339 113.77929688 103.20751953 C116.78886784 109.57326934 119.92932631 115.86850184 123.09765625 122.15625 C123.55444763 123.06393127 124.01123901 123.97161255 124.48187256 124.90679932 C126.79648078 129.50415083 129.11803912 134.09780098 131.44970703 138.68652344 C132.30393023 140.37944666 133.15794355 142.0724758 134.01171875 143.765625 C134.41423355 144.55199341 134.81674835 145.33836182 135.23146057 146.14855957 C135.59682419 146.8758728 135.96218781 147.60318604 136.33862305 148.35253906 C136.82180244 149.3043808 136.82180244 149.3043808 137.31474304 150.27545166 C138 152 138 152 138 155 C138.66 155 139.32 155 140 155 C140.2225647 154.22988083 140.44512939 153.45976166 140.67443848 152.66630554 C142.47380149 147.68953571 144.83365084 143.06312147 147.20898438 138.33911133 C147.73941345 137.27635483 148.26984253 136.21359833 148.81634521 135.11863708 C150.26844995 132.211363 151.72410929 129.30590393 153.18150139 126.40127778 C154.71695302 123.33921222 156.24814286 120.27501657 157.77990723 117.21110535 C160.35965998 112.05253599 162.94249994 106.89552201 165.52734375 101.73950195 C168.49020437 95.82939221 171.44897137 89.91724862 174.40529394 84.00386602 C177.578045 77.65768001 180.7538676 71.3130346 183.9305439 64.9688127 C184.83172451 63.16855418 185.73229553 61.36799055 186.63285828 59.56742287 C193.60628784 45.62959892 200.68341692 31.76069681 208 18 C210.97 12.39 213.94 6.78 217 1 C237.79 1 258.58 1 280 1 C284.558125 10.095625 289.11625 19.19125 293.8125 28.5625 C295.22635986 31.38111572 296.64021973 34.19973145 298.09692383 37.10375977 C304.16865296 49.22508078 310.17358636 61.36917198 315.98616028 73.61756897 C321.3203486 84.82973858 326.91876035 95.90936013 332.5 107 C338.58800333 119.09764437 344.65510909 131.19746478 350.4609375 143.43359375 C354.36922861 151.66910223 358.39594329 159.83688633 362.5078125 167.97265625 C363.05181702 169.05042328 363.59582153 170.12819031 364.15631104 171.23861694 C366.38178493 175.64444877 368.60943045 180.04911649 370.84765625 184.44848633 C372.51243887 187.72377549 374.16714349 191.00399347 375.8203125 194.28515625 C376.3274881 195.27572525 376.8346637 196.26629425 377.35720825 197.28688049 C379.64762278 201.85032072 381.60822865 205.82069595 382 211 C367.78580588 218.57643366 353.43053492 225.84494468 339 233 C336.67347217 230.07097796 334.93315579 227.11443073 333.26367188 223.77026367 C332.73882202 222.72364059 332.21397217 221.67701752 331.67321777 220.59867859 C331.11074341 219.46654434 330.54826904 218.3344101 329.96875 217.16796875 C329.37191601 215.9731048 328.7747828 214.77839027 328.17736816 213.58381653 C326.92077693 211.06906946 325.66687842 208.5530045 324.41503906 206.03588867 C322.84697166 202.88309777 321.27388811 199.73284687 319.69892883 196.58349419 C313.38084544 183.94671541 307.1439345 171.27680608 301.08288574 158.51420593 C295.56205723 146.92346624 289.76965087 135.46828025 284 124 C277.11063539 110.30607538 270.27943718 96.59482027 263.69816589 82.74971008 C260.04188582 75.06114845 256.24979626 67.45295985 252.37304688 59.87304688 C251.92638672 58.99068359 251.47972656 58.10832031 251.01953125 57.19921875 C250.62870361 56.43440186 250.23787598 55.66958496 249.83520508 54.8815918 C249 53 249 53 249 51 C248.34 51 247.68 51 247 51 C246.73925595 51.84638881 246.47851191 52.69277761 246.20986652 53.56481457 C244.93692663 57.17908483 243.36317758 60.54910083 241.64213562 63.96296692 C241.30501975 64.63961307 240.96790389 65.31625922 240.62057239 66.01340979 C239.49522219 68.26972482 238.36419932 70.5231463 237.2331543 72.77661133 C236.42291061 74.39817218 235.61301342 76.0199062 234.80343628 77.64179993 C232.60653695 82.04044101 230.40465135 86.43656862 228.20175529 90.83220887 C225.89389917 95.43912436 223.59027161 100.04815353 221.28608704 104.65690613 C217.41423591 112.39967206 213.53929143 120.14088348 209.66235352 127.88110352 C205.18724125 136.81562291 200.71629704 145.75221773 196.24775952 154.69002706 C191.483267 164.21968916 186.71572398 173.74782271 181.94729257 183.27551436 C180.57737029 186.01323306 179.20801274 188.75123358 177.83878136 191.48929787 C175.68116191 195.80352752 173.52149146 200.11672453 171.36027145 204.42915154 C170.56991862 206.00695167 169.78022814 207.58508382 168.99127007 209.16358185 C167.9089684 211.32868101 166.82419193 213.49252321 165.73881531 215.65608215 C165.43179505 216.27167128 165.12477478 216.8872604 164.80845088 217.52150375 C162.33719471 222.43726233 159.67960922 227.1767034 157 232 C145.12 232 133.24 232 121 232 C114.29213324 219.402299 107.8465632 206.71797614 101.61535645 193.87890625 C99.12452801 188.74776134 96.62347077 183.62161457 94.12109375 178.49609375 C93.61256866 177.45444061 93.10404358 176.41278748 92.58010864 175.33956909 C86.56534791 163.03822842 80.42777651 150.79848396 74.26635742 138.57006836 C69.97748703 130.04431257 65.77951854 121.48354689 61.68359375 112.86328125 C57.77274255 104.63631176 53.76680345 96.46310973 49.67578125 88.32421875 C49.15178741 87.28173981 48.62779358 86.23926086 48.08792114 85.16519165 C45.94500491 80.90694507 43.79882144 76.65036075 41.6496582 72.39526367 C40.05078196 69.22745622 38.4567312 66.05725828 36.86328125 62.88671875 C36.12758659 61.43551888 36.12758659 61.43551888 35.37702942 59.95500183 C34.70953926 58.62508965 34.70953926 58.62508965 34.02856445 57.26831055 C33.63538528 56.48940964 33.24220612 55.71050873 32.83711243 54.90800476 C32 53 32 53 32 51 C31.34 51 30.68 51 30 51 C29.59257442 52.30220222 29.59257442 52.30220222 29.17691803 53.63071156 C28.04205704 56.87959883 26.70795868 59.83299262 25.16931152 62.90861511 C24.59202301 64.06738663 24.0147345 65.22615814 23.41995239 66.42004395 C22.78199862 67.69046847 22.14396493 68.96085288 21.50585938 70.23120117 C20.83180563 71.58038258 20.15809848 72.92973718 19.48471069 74.2792511 C17.65729711 77.93891858 15.82490007 81.59606986 13.99149132 85.25273681 C12.06366593 89.09956817 10.14008749 92.94852232 8.21594238 96.79719543 C4.97709159 103.27396048 1.73514974 109.74917063 -1.50878906 116.22338867 C-5.2351009 123.66037728 -8.95730102 131.09941144 -12.67706537 138.53967685 C-16.66046536 146.50715867 -20.64693111 154.47310375 -24.63426018 162.43861985 C-25.76995735 164.70790443 -26.90510176 166.97746475 -28.04011536 169.24709129 C-42.44977151 198.05667299 -42.44977151 198.05667299 -49.93103027 212.08100891 C-53.42561678 218.64954332 -56.70603492 225.32926067 -60 232 C-63.38931321 231.42654139 -66.17389437 230.59793903 -69.23950195 229.05053711 C-70.44018059 228.45002785 -70.44018059 228.45002785 -71.66511536 227.83738708 C-72.5142601 227.40507278 -73.36340485 226.97275848 -74.23828125 226.52734375 C-75.55943184 225.86358482 -75.55943184 225.86358482 -76.90727234 225.18641663 C-79.71188801 223.77573158 -82.51220875 222.35674671 -85.3125 220.9375 C-87.21651941 219.97796485 -89.12081326 219.01897407 -91.02539062 218.06054688 C-95.68679346 215.71333219 -100.34470044 213.35929424 -105 211 C-103.50632327 206.0779803 -101.46616942 201.65244619 -99.1620636 197.07688904 C-98.77327268 196.29689279 -98.38448177 195.51689654 -97.98390931 194.71326405 C-96.6835778 192.10697741 -95.37756049 189.50358301 -94.0715332 186.90014648 C-93.13645729 185.02892139 -92.20172784 183.15752312 -91.26731873 181.28596497 C-88.729389 176.20525885 -86.18646603 171.12706694 -83.64254022 166.04936099 C-80.97660573 160.72628607 -78.31489761 155.40109849 -75.65263367 150.07618713 C-71.17715504 141.12616661 -66.6985813 132.17770042 -62.21801758 123.23022461 C-57.04994622 112.90977097 -51.88602937 102.58724751 -46.7245267 92.26350731 C-41.2186281 81.25103224 -35.70967598 70.24008678 -30.19984031 59.22958112 C-28.6187388 56.06950153 -27.03820017 52.90914097 -25.45778847 49.74871635 C-22.96364395 44.76143886 -20.46744164 39.77519641 -17.96970558 34.78971672 C-17.0576413 32.96848656 -16.14623312 31.14692763 -15.23556137 29.32500076 C-13.9831771 26.819734 -12.72830598 24.31572733 -11.47285461 21.81199646 C-11.12107771 21.10689404 -10.7693008 20.40179163 -10.40686399 19.67532247 C-7.0716047 13.03578649 -3.52812125 6.55222517 0 0 Z " fill="#FFC108" transform="translate(141,86)"/>
  <path d="M0 0 C3.20158554 1.28063422 6.18210593 2.52943726 9.23950195 4.06298828 C10.03995438 4.46325226 10.8404068 4.86351624 11.66511536 5.27590942 C12.5142601 5.70306244 13.36340485 6.13021545 14.23828125 6.5703125 C15.55943184 7.23194901 15.55943184 7.23194901 16.90727234 7.9069519 C19.70996221 9.31108733 22.51124551 10.71800353 25.3125 12.125 C27.21670466 13.07961106 29.12100051 14.03404022 31.02539062 14.98828125 C35.68465259 17.32341413 40.34276395 19.66082944 45 22 C41.98153829 31.05538514 37.26874949 39.46250102 33 48 C3.96 48 -25.08 48 -55 48 C-67.0119828 25.17723268 -67.0119828 25.17723268 -66.85762024 22.89411926 C-65.74057586 20.42704215 -64.68374338 19.90133547 -62.27807617 18.6940918 C-61.49023239 18.29075119 -60.70238861 17.88741058 -59.89067078 17.47184753 C-58.60480827 16.84189629 -58.60480827 16.84189629 -57.29296875 16.19921875 C-56.41602859 15.75858597 -55.53908844 15.31795319 -54.63557434 14.8639679 C-52.77859324 13.93528651 -50.9180994 13.01360127 -49.05444336 12.09838867 C-46.20001889 10.69366083 -43.36047346 9.26179284 -40.52148438 7.82617188 C-38.71697188 6.92802592 -36.9116585 6.03148691 -35.10546875 5.13671875 C-33.82871529 4.49158577 -33.82871529 4.49158577 -32.52616882 3.8334198 C-31.33021843 3.25205009 -31.33021843 3.25205009 -30.11010742 2.65893555 C-29.41141037 2.3134819 -28.71271332 1.96802826 -27.99284363 1.61210632 C-25.57150182 0.86838584 -24.33836215 1.07525851 -22 2 C-20.53613281 3.94946289 -20.53613281 3.94946289 -19.203125 6.47265625 C-18.76645508 7.28226807 -18.32978516 8.09187988 -17.87988281 8.92602539 C-17.34202148 9.96106201 -16.80416016 10.99609863 -16.25 12.0625 C-14.5175 15.341875 -12.785 18.62125 -11 22 C-5.555 11.11 -5.555 11.11 0 0 Z " fill="#FFC10A" transform="translate(184,0)"/>
  <path d="M0 0 C1.25854492 1.94946289 1.25854492 1.94946289 2.48046875 4.47265625 C3.14272461 5.82133789 3.14272461 5.82133789 3.81835938 7.19726562 C4.27017578 8.14279297 4.72199219 9.08832031 5.1875 10.0625 C5.65091797 11.01189453 6.11433594 11.96128906 6.59179688 12.93945312 C7.73693168 15.28875031 8.87249578 17.64220365 10 20 C12.02921471 17.39647924 13.73322654 14.81469706 15.26171875 11.890625 C15.85629883 10.75947266 15.85629883 10.75947266 16.46289062 9.60546875 C16.86701172 8.82816406 17.27113281 8.05085937 17.6875 7.25 C18.10322266 6.45722656 18.51894531 5.66445312 18.94726562 4.84765625 C19.96799486 2.90005793 20.9854562 0.95082551 22 -1 C25.38931321 -0.42654139 28.17389437 0.40206097 31.23950195 1.94946289 C32.03995438 2.3498024 32.8404068 2.75014191 33.66511536 3.16261292 C34.93883247 3.81108437 34.93883247 3.81108437 36.23828125 4.47265625 C37.11904831 4.9151622 37.99981537 5.35766815 38.90727234 5.81358337 C41.71188801 7.22426842 44.51220875 8.64325329 47.3125 10.0625 C49.21651941 11.02203515 51.12081326 11.98102593 53.02539062 12.93945312 C57.68679346 15.28666781 62.34470044 17.64070576 67 20 C63.98153829 29.05538514 59.26874949 37.46250102 55 46 C25.63 46 -3.74 46 -34 46 C-45 23 -45 23 -46 20 C-38.68033381 16.30572516 -31.34532795 12.64297204 -24 9 C-22.99195313 8.49887695 -21.98390625 7.99775391 -20.9453125 7.48144531 C-18.07315874 6.05950305 -15.19420802 4.65245996 -12.3125 3.25 C-11.42280518 2.8080127 -10.53311035 2.36602539 -9.61645508 1.91064453 C-8.79040771 1.51216309 -7.96436035 1.11368164 -7.11328125 0.703125 C-6.38923096 0.34895508 -5.66518066 -0.00521484 -4.91918945 -0.37011719 C-3 -1 -3 -1 0 0 Z " fill="#FFC10A" transform="translate(379,2)"/>
  <path d="M0 0 C0.66 0 1.32 0 2 0 C2.57161865 1.03833984 2.57161865 1.03833984 3.15478516 2.09765625 C4.97516253 5.40011559 6.79910996 8.70058659 8.625 12 C8.95825287 12.60258636 9.29150574 13.20517273 9.63485718 13.82601929 C15.12973326 23.75111763 20.77586711 33.57342217 26.60595703 43.30664062 C27.15493652 44.23283203 27.70391602 45.15902344 28.26953125 46.11328125 C28.75010986 46.91548096 29.23068848 47.71768066 29.72583008 48.54418945 C31 51 31 51 33 57 C11.88 57 -9.24 57 -31 57 C-29.56386092 52.69158276 -28.47293907 49.78934128 -26.234375 46.04296875 C-25.68031982 45.10662598 -25.12626465 44.1702832 -24.55541992 43.20556641 C-23.95963135 42.20960449 -23.36384277 41.21364258 -22.75 40.1875 C-17.45152537 31.22513469 -12.26252262 22.21521443 -7.1875 13.125 C-6.58325195 12.04371826 -5.97900391 10.96243652 -5.35644531 9.84838867 C-2.60394649 4.9637207 -2.60394649 4.9637207 0 0 Z " fill="#FFC108" transform="translate(171,188)"/>
  <path d="M0 0 C0.66 0 1.32 0 2 0 C2.2902002 0.54076172 2.58040039 1.08152344 2.87939453 1.63867188 C9.95652329 14.79490811 17.29193157 27.7711823 24.87109375 40.64453125 C26.90259357 44.11068853 28.92608239 47.58065982 30.91015625 51.07421875 C31.51742554 52.14095825 31.51742554 52.14095825 32.13696289 53.22924805 C33 55 33 55 33 57 C11.88 57 -9.24 57 -31 57 C-29.47745227 52.43235682 -28.11873483 49.16246424 -25.76171875 45.09765625 C-24.7871875 43.40624512 -24.7871875 43.40624512 -23.79296875 41.68066406 C-23.09118511 40.47458652 -22.38936136 39.26853231 -21.6875 38.0625 C-20.97072831 36.82165038 -20.25458904 35.58043524 -19.5390625 34.33886719 C-18.44450714 32.43966772 -17.34962435 30.54066867 -16.2527771 28.64279175 C-12.62750059 22.36824762 -9.05883602 16.06247598 -5.5 9.75 C-4.94272217 8.76265869 -4.38544434 7.77531738 -3.8112793 6.75805664 C-2.54020383 4.50573606 -1.26974473 2.25307095 0 0 Z " fill="#FFC108" transform="translate(384,188)"/>
  <path d="M0 0 C1.7697205 -0.0155563 3.53942614 -0.03289675 5.30911255 -0.05194092 C9.01662612 -0.0817661 12.72261626 -0.08064823 16.43017578 -0.05957031 C21.17249314 -0.03639739 25.9085567 -0.10406208 30.6498394 -0.19694901 C34.30486213 -0.25601486 37.95838839 -0.25937229 41.61380386 -0.2469101 C43.36094678 -0.24895793 45.10817621 -0.26981914 46.85485458 -0.31015778 C52.22561579 -0.41896425 57.09045885 -0.36203655 62.2578125 1.203125 C65.95408195 4.94209607 69.2578125 9.74392029 69.2578125 15.203125 C38.2378125 15.203125 7.2178125 15.203125 -24.7421875 15.203125 C-24.0821875 13.223125 -23.4221875 11.243125 -22.7421875 9.203125 C-22.52263397 8.44622375 -22.30308044 7.68932251 -22.07687378 6.90948486 C-18.36463186 -1.84389077 -8.05570627 -0.02929677 0 0 Z " fill="#FFC313" transform="translate(362.7421875,255.796875)"/>
  <path d="M0 0 C10.30910974 -0.27841273 20.61732169 -0.49143644 30.92942905 -0.62174606 C35.71838475 -0.68430169 40.50476393 -0.76908154 45.29223633 -0.90527344 C49.91551275 -1.03596657 54.53631744 -1.10746558 59.16129875 -1.13852692 C60.92266717 -1.16064966 62.68390446 -1.20385911 64.44421577 -1.26876068 C69.85486662 -1.4602571 74.76701539 -1.49341419 80 0 C83.72623659 3.7288257 87 8.52931422 87 14 C55.98 14 24.96 14 -7 14 C-5.58843021 10.47107553 -4.22615467 7.45137797 -2.375 4.1875 C-1.92898437 3.39730469 -1.48296875 2.60710937 -1.0234375 1.79296875 C-0.68570313 1.20128906 -0.34796875 0.60960937 0 0 Z " fill="#FFC313" transform="translate(132,257)"/>
  <path d="M0 0 C24.75 0 49.5 0 75 0 C73 6 73 6 67 18 C47.53 18 28.06 18 8 18 C0 2 0 2 0 0 Z " fill="#FFC10A" transform="translate(352,60)"/>
  <path d="M0 0 C24.75 0 49.5 0 75 0 C73 6 73 6 67 17 C47.53 17 28.06 17 8 17 C0 1 0 1 0 0 Z " fill="#FFC107" transform="translate(135,60)"/>
</svg>